<?xml version="1.0" encoding="utf-8"?>
<!-- Generator: Adobe Illustrator 23.0.1, SVG Export Plug-In . SVG Version: 6.00 Build 0)  -->
<svg version="1.1" id="Layer_1" xmlns="http://www.w3.org/2000/svg" xmlns:xlink="http://www.w3.org/1999/xlink" x="0px" y="0px"
	 viewBox="0 0 124 66" style="enable-background:new 0 0 124 66;" xml:space="preserve">
<style type="text/css">
	.st0{fill:#0033A1;}
	.st1{fill:#EA0029;}
	.st2{fill:none;}
</style>
<polygon class="st0" points="65.66,42.84 65.66,47.73 66.35,47.67 66.35,42.72 "/>
<path class="st0" d="M67.25,42.84h1.21c1.46,0,2.44,1.17,2.44,2.42c0,1.25-0.97,2.42-2.44,2.42h-1.21V42.84z M67.94,47.04h0.51
	c0.82,0,1.75-0.68,1.75-1.78s-0.93-1.78-1.75-1.78h-0.51V47.04z"/>
<path class="st0" d="M77.6,47.08c-0.31,0.38-1.06,0.71-1.9,0.71c-1.29,0-2.43-1.17-2.43-2.47c0-1.42,1.07-2.59,2.51-2.59
	c0.66,0,1.33,0.22,1.76,0.66l-0.41,0.47c-0.37-0.28-0.75-0.5-1.32-0.5c-0.98,0-1.85,0.83-1.85,1.96c0,0.82,0.73,1.83,1.72,1.83
	c0.43,0,0.92-0.11,1.23-0.43v-1.15h-1.44l0.24-0.64h1.9V47.08z"/>
<path class="st0" d="M78.56,47.76v-4.92h1.19c0.72,0,1.59,0.37,1.59,1.47c0,0.72-0.41,1.11-1.07,1.26l1.46,2.02l-0.78,0.2
	l-1.68-2.46h-0.01v2.35L78.56,47.76z M79.25,45.17h0.49c0.47,0,0.9-0.34,0.9-0.87c0-0.57-0.37-0.83-0.9-0.83h-0.49V45.17z"/>
<path class="st0" d="M84.43,42.73c1.4,0,2.54,1.11,2.54,2.53c0,1.42-1.14,2.53-2.54,2.53c-1.4,0-2.54-1.11-2.54-2.53
	C81.89,43.83,83.03,42.73,84.43,42.73 M84.43,47.15c1.02,0,1.85-0.89,1.85-1.9c0-1.01-0.83-1.9-1.85-1.9c-1.02,0-1.85,0.89-1.85,1.9
	C82.58,46.26,83.41,47.15,84.43,47.15"/>
<path class="st0" d="M91.04,42.73v3.08c0,1.49-0.48,1.98-1.7,1.98c-1.33,0-1.72-0.59-1.72-1.98v-2.97l0.69-0.11v3.45
	c0,0.62,0.36,0.98,0.97,0.98c0.59,0,1.07-0.27,1.07-0.98v-3.33L91.04,42.73z"/>
<path class="st0" d="M91.94,47.76v-4.92h1.3c0.99,0,1.64,0.59,1.64,1.42c0,1.19-0.83,1.57-1.88,1.57h-0.37v1.85L91.94,47.76z
	 M92.63,45.19h0.54c0.66,0,1.02-0.25,1.02-0.93c0-0.59-0.49-0.79-1.02-0.79h-0.54V45.19z"/>
<path class="st1" d="M7.43,40.46V25.28h2.86v1.58c0.49-0.6,1-1.04,1.53-1.34c0.53-0.29,1.07-0.44,1.64-0.44
	c0.54,0,0.98,0.15,1.32,0.44c0.34,0.3,0.57,0.74,0.7,1.34c0.45-0.55,0.95-0.98,1.51-1.28c0.56-0.31,1.11-0.46,1.63-0.46
	c0.7,0,1.23,0.21,1.57,0.64c0.34,0.43,0.52,1.07,0.52,1.92v12.79h-2.86V29.01c0-0.48-0.06-0.79-0.16-0.95
	c-0.11-0.16-0.31-0.24-0.59-0.24c-0.2,0-0.46,0.11-0.77,0.32c-0.31,0.21-0.6,0.49-0.85,0.82v11.51h-2.63V29.01
	c0-0.46-0.06-0.78-0.18-0.95c-0.12-0.16-0.33-0.25-0.63-0.25c-0.22,0-0.49,0.1-0.82,0.31c-0.33,0.21-0.64,0.48-0.93,0.83v11.51H7.43
	z"/>
<path class="st1" d="M32.04,38.75c-0.45,0.61-0.94,1.08-1.49,1.41c-0.55,0.33-1.11,0.5-1.68,0.5c-0.79,0-1.4-0.29-1.83-0.87
	c-0.43-0.58-0.65-1.4-0.65-2.48c0-1.4,0.4-2.59,1.19-3.58c0.79-0.98,2.25-2.04,4.37-3.18v-1.64c0-0.45-0.08-0.8-0.24-1.04
	c-0.16-0.24-0.4-0.35-0.71-0.35c-0.4,0-0.71,0.12-0.94,0.34c-0.23,0.23-0.34,0.54-0.34,0.94v0.84h-2.86c0-0.05,0-0.12-0.01-0.2
	c-0.01-0.08-0.01-0.15-0.01-0.2c0-1.27,0.4-2.31,1.21-3.13c0.81-0.82,1.82-1.22,3.04-1.22c1.28,0,2.23,0.39,2.85,1.17
	c0.62,0.78,0.93,1.97,0.93,3.59v6.47c0,1.01,0.02,1.9,0.07,2.66c0.05,0.76,0.11,1.32,0.2,1.68h-2.83c-0.08-0.2-0.13-0.43-0.18-0.7
	C32.09,39.49,32.06,39.15,32.04,38.75 M31.95,36.68v-3.94c-1.01,0.65-1.7,1.26-2.08,1.82c-0.38,0.56-0.57,1.24-0.57,2.03
	c0,0.48,0.08,0.84,0.23,1.1c0.15,0.26,0.36,0.38,0.64,0.38c0.33,0,0.66-0.13,0.99-0.38C31.49,37.44,31.76,37.1,31.95,36.68"/>
<path class="st1" d="M40.95,40.46V25.28h2.86v2.06c0.36-0.74,0.79-1.3,1.29-1.67c0.5-0.38,1.07-0.56,1.71-0.56h0.28v3.17
	c-0.13-0.07-0.28-0.12-0.43-0.15c-0.15-0.03-0.32-0.05-0.5-0.05c-0.73,0-1.31,0.22-1.73,0.65c-0.42,0.44-0.63,1.03-0.63,1.79v9.93
	H40.95z"/>
<path class="st1" d="M54.05,36.01c-0.67-0.42-1.15-0.9-1.43-1.43c-0.28-0.53-0.42-1.25-0.42-2.15V29.4c0-1.43,0.34-2.54,1.02-3.32
	c0.68-0.78,1.63-1.18,2.87-1.18c0.65,0,1.25,0.14,1.78,0.41c0.53,0.28,1.03,0.7,1.51,1.28c0.21-0.45,0.49-0.81,0.85-1.06
	c0.36-0.25,0.78-0.4,1.29-0.45v2.46c-0.13-0.02-0.24-0.03-0.33-0.05c-0.1-0.01-0.18-0.02-0.25-0.02c-0.24,0-0.45,0.05-0.63,0.15
	c-0.19,0.1-0.33,0.24-0.45,0.43c0.01,0.17,0.01,0.34,0.02,0.51c0.01,0.17,0.01,0.34,0.01,0.5v3.38c0,1.32-0.31,2.33-0.94,3.03
	c-0.63,0.7-1.53,1.05-2.7,1.05c-0.16-0.01-0.39-0.03-0.68-0.06c-0.03,0-0.05-0.01-0.07-0.02c-0.22,0.16-0.38,0.33-0.5,0.49
	c-0.11,0.17-0.17,0.33-0.17,0.48c0,0.43,0.56,0.69,1.66,0.75c0.66,0.04,1.19,0.08,1.59,0.14c1.23,0.18,2.14,0.55,2.72,1.1
	c0.58,0.55,0.87,1.32,0.87,2.31c0,1.19-0.46,2.08-1.39,2.68c-0.92,0.6-2.29,0.9-4.09,0.9c-1.5,0-2.67-0.21-3.5-0.64
	c-0.83-0.42-1.25-1.02-1.25-1.78c0-0.24,0.06-0.48,0.17-0.72c0.11-0.25,0.27-0.47,0.47-0.67c0.19-0.19,0.43-0.37,0.73-0.54
	c0.3-0.17,0.68-0.35,1.16-0.54c-0.56-0.14-0.99-0.37-1.29-0.67c-0.3-0.3-0.46-0.66-0.46-1.08c0-0.48,0.13-0.92,0.4-1.32
	C52.87,36.97,53.35,36.52,54.05,36.01 M55.62,40.82c-0.37,0.17-0.64,0.35-0.82,0.55c-0.18,0.19-0.26,0.41-0.26,0.65
	c0,0.32,0.19,0.6,0.58,0.84c0.39,0.24,0.88,0.35,1.47,0.35c0.74,0,1.34-0.12,1.81-0.35c0.46-0.23,0.7-0.53,0.7-0.89
	c0-0.4-0.26-0.69-0.78-0.87C57.8,40.92,56.9,40.83,55.62,40.82 M57.28,32.6v-3.53c0-0.52-0.1-0.91-0.31-1.16
	c-0.21-0.25-0.52-0.38-0.94-0.38c-0.42,0-0.72,0.12-0.92,0.37c-0.2,0.25-0.3,0.63-0.3,1.17v3.53c0,0.53,0.1,0.92,0.3,1.17
	c0.2,0.25,0.51,0.38,0.92,0.38c0.42,0,0.73-0.13,0.94-0.38C57.18,33.51,57.28,33.12,57.28,32.6"/>
<rect x="66.22" y="25.28" class="st1" width="2.86" height="15.18"/>
<path class="st1" d="M75.43,40.46V25.28h2.86v1.66c0.52-0.61,1.06-1.07,1.62-1.39c0.55-0.32,1.09-0.48,1.61-0.48
	c0.66,0,1.16,0.22,1.49,0.67c0.33,0.44,0.5,1.11,0.5,2.01v12.7h-2.83V29.01c0-0.48-0.05-0.79-0.16-0.95
	c-0.11-0.16-0.31-0.24-0.59-0.24c-0.21,0-0.47,0.11-0.78,0.32c-0.31,0.21-0.6,0.49-0.86,0.82v11.51H75.43z"/>
<path class="st1" d="M88.8,36.35l2.73-0.61c0.12,0.88,0.33,1.51,0.63,1.9c0.29,0.38,0.71,0.58,1.24,0.58c0.4,0,0.72-0.12,0.95-0.36
	c0.24-0.24,0.35-0.57,0.35-0.97c0-0.79-0.96-1.91-2.87-3.36l-0.07-0.06c-0.96-0.72-1.64-1.42-2.04-2.1
	c-0.4-0.68-0.61-1.46-0.61-2.32c0-1.24,0.39-2.24,1.15-3c0.77-0.76,1.77-1.14,3.01-1.14c1.17,0,2.11,0.35,2.83,1.05
	c0.72,0.7,1.13,1.66,1.21,2.89l-2.67,0.64c-0.1-0.65-0.28-1.13-0.53-1.44c-0.25-0.32-0.57-0.48-0.98-0.48
	c-0.38,0-0.68,0.12-0.9,0.36c-0.22,0.24-0.33,0.57-0.33,0.97c0,0.66,0.67,1.52,2,2.57c0.36,0.29,0.64,0.52,0.84,0.68
	c1.05,0.88,1.77,1.66,2.16,2.33c0.39,0.67,0.58,1.42,0.58,2.25c0,1.25-0.39,2.25-1.16,3.01c-0.77,0.75-1.79,1.13-3.07,1.13
	c-1.21,0-2.22-0.4-3.01-1.19C89.47,38.88,88.98,37.77,88.8,36.35"/>
<path class="st0" d="M64.75,20.56c0,1.67,1.35,3.02,3.02,3.02c1.67,0,3.02-1.35,3.02-3.02c0-1.67-1.35-3.02-3.02-3.02
	C66.1,17.54,64.75,18.89,64.75,20.56"/>
<path class="st0" d="M92.44,63.03c-8.44,0-16.43-3.68-21.93-10.1l0.76-0.65c5.31,6.2,13.03,9.75,21.17,9.75
	c15.37,0,27.88-12.51,27.88-27.88c0-15.37-12.51-27.88-27.88-27.88c-9.11,0-17.67,4.47-22.89,11.97l-0.82-0.57
	C74.14,9.9,83,5.27,92.44,5.27c15.92,0,28.88,12.95,28.88,28.88S108.36,63.03,92.44,63.03"/>
<rect class="st2" width="124" height="66"/>
</svg>
